<?xml version="1.0" standalone="no"?>
<!DOCTYPE svg PUBLIC "-//W3C//DTD SVG 20010904//EN"
 "http://www.w3.org/TR/2001/REC-SVG-20010904/DTD/svg10.dtd">
<svg version="1.0" xmlns="http://www.w3.org/2000/svg"
 width="260.000000pt" height="260.000000pt" viewBox="0 0 260.000000 260.000000"
 preserveAspectRatio="xMidYMid meet">
<metadata>
Created by potrace 1.14, written by Peter Selinger 2001-2017
</metadata>
<g transform="translate(0.000000,260.000000) scale(0.100000,-0.100000)"
fill="#000000" stroke="none">
<path d="M0 1300 l0 -1300 1300 0 1300 0 0 1300 0 1300 -1300 0 -1300 0 0
-1300z m1850 1003 c48 -17 72 -33 51 -33 -7 0 -10 -4 -6 -10 3 -5 13 -6 22 -3
10 4 14 2 10 -4 -4 -6 7 -22 24 -37 29 -26 30 -28 12 -41 -17 -14 -17 -14 0
-15 16 0 18 -6 13 -45 -3 -27 -1 -43 5 -40 20 13 7 -15 -16 -33 -14 -11 -26
-32 -27 -46 -1 -14 -7 -26 -12 -26 -5 0 -7 -3 -3 -6 8 -8 -40 -95 -65 -116
-11 -10 -17 -18 -13 -18 4 0 2 -6 -4 -13 -6 -8 -8 -17 -4 -20 3 -4 -2 -7 -11
-7 -11 0 -16 -5 -13 -13 3 -8 -3 -20 -14 -28 -10 -7 -19 -22 -19 -32 0 -16 -3
-17 -15 -7 -13 10 -15 9 -15 -9 0 -12 -6 -21 -15 -21 -8 0 -14 -6 -13 -12 2
-7 -8 -14 -22 -16 -14 -2 -31 -11 -37 -20 -10 -12 -13 -13 -13 -2 0 10 -3 11
-11 3 -8 -8 -20 -8 -36 -2 -13 5 -27 8 -31 7 -15 -3 -42 15 -42 29 0 8 -4 12
-9 9 -19 -12 -70 112 -56 134 3 6 2 10 -3 10 -5 0 -10 18 -10 40 0 22 -4 44
-7 50 -3 6 1 13 9 16 9 3 16 10 16 16 0 5 -5 6 -10 3 -6 -4 -10 5 -8 22 1 16
-1 34 -5 40 -4 6 -2 15 3 18 6 4 10 17 9 28 -3 39 1 58 10 53 5 -4 7 2 4 13
-3 11 2 21 12 25 9 3 13 10 10 16 -3 6 1 13 9 16 9 3 16 10 16 16 0 5 -4 6
-10 3 -5 -3 -10 -1 -10 5 0 6 10 8 26 4 24 -6 25 -5 15 15 -10 17 -9 21 4 21
8 0 15 6 15 13 0 8 11 19 24 26 29 16 67 6 59 -15 -3 -9 1 -14 11 -14 9 0 19
-6 22 -14 7 -18 44 -9 44 11 0 8 4 11 10 8 5 -3 7 0 4 9 -3 8 -12 12 -20 9 -9
-3 -14 2 -14 15 0 11 8 22 17 24 47 9 92 6 133 -9z m-161 -15 c0 -22 -1 -22
-9 -3 -5 11 -9 14 -9 7 -1 -7 -5 -10 -11 -7 -17 10 -11 25 10 25 14 0 20 -6
19 -22z m-795 3 c3 -5 17 -11 31 -13 13 -3 22 -2 20 3 -3 4 -1 10 5 14 5 3 10
2 10 -3 0 -17 48 -20 63 -4 20 19 37 7 37 -24 0 -14 4 -23 10 -19 5 3 6 13 3
22 -5 12 -3 14 7 8 36 -22 50 -42 50 -70 1 -29 1 -29 15 -11 14 19 15 19 15 2
0 -11 8 -25 18 -33 16 -14 16 -14 -1 -9 -17 5 -16 3 2 -23 12 -16 21 -36 21
-44 0 -9 6 -18 13 -20 9 -4 9 -7 0 -14 -13 -9 -6 -56 7 -48 4 3 10 -6 12 -20
4 -16 1 -22 -6 -18 -6 4 -3 -4 6 -19 13 -20 14 -28 5 -38 -9 -10 -9 -14 0 -17
7 -2 10 -10 7 -17 -3 -7 0 -25 6 -40 6 -17 6 -25 0 -21 -6 4 -7 -5 -4 -23 5
-22 0 -35 -19 -55 -13 -15 -30 -27 -36 -27 -7 0 -10 -4 -6 -9 3 -5 -4 -12 -15
-16 -11 -3 -20 -11 -20 -16 0 -5 -6 -9 -14 -9 -8 0 -17 -6 -20 -12 -5 -10 -7
-10 -12 -1 -4 8 -14 8 -41 -3 -34 -15 -35 -15 -31 4 5 18 2 19 -23 12 -29 -9
-59 8 -59 31 0 5 -6 8 -12 7 -7 -2 -12 5 -10 15 2 9 -2 17 -7 17 -15 0 -121
108 -121 124 0 7 -7 17 -16 20 -9 4 -14 9 -11 12 5 6 -9 25 -54 72 -35 37 -52
69 -39 77 5 3 10 1 10 -6 0 -8 4 -8 15 1 9 7 15 20 13 29 -1 9 1 22 5 29 5 6
4 12 -1 12 -5 0 -12 9 -15 20 -3 11 -1 18 4 14 5 -3 9 1 9 8 0 10 2 10 9 -1 7
-11 10 -9 16 8 4 13 4 25 1 28 -6 6 22 30 37 32 17 2 34 27 29 43 -2 10 1 18
7 18 6 0 11 -4 11 -10 0 -5 5 -10 12 -10 6 0 3 9 -7 20 -20 22 -14 26 16 10
15 -8 19 -7 19 5 0 16 15 20 24 6z m-488 -450 c-3 -5 16 -7 44 -4 41 3 50 1
50 -12 0 -9 9 -26 21 -38 32 -33 40 -61 20 -69 -12 -5 -9 -7 9 -7 20 -1 22 -3
10 -11 -12 -8 -12 -10 5 -10 17 0 18 -2 5 -11 -12 -8 -11 -9 6 -4 15 4 24 0
28 -11 5 -12 2 -15 -10 -10 -10 4 -14 1 -12 -6 3 -7 11 -13 19 -13 8 0 13 -8
13 -18 -1 -9 2 -15 6 -12 11 7 29 -41 24 -62 -4 -14 3 -25 20 -37 14 -9 26
-24 26 -34 0 -10 5 -23 12 -30 9 -9 8 -12 -6 -12 -13 0 -16 -3 -8 -12 11 -15
10 -77 -2 -96 -4 -7 -14 -11 -21 -8 -7 2 -16 -2 -19 -10 -3 -8 -17 -14 -31
-14 -19 0 -25 -5 -25 -21 0 -14 -5 -19 -14 -16 -8 3 -17 -1 -20 -10 -6 -14 -8
-14 -21 3 -9 11 -13 13 -10 4 4 -11 -2 -15 -19 -15 -13 0 -22 3 -20 6 2 4 -3
10 -12 13 -8 3 -12 2 -9 -4 3 -6 1 -10 -4 -10 -6 0 -11 5 -11 10 0 6 -10 10
-22 10 -19 0 -20 2 -8 10 12 8 10 10 -10 11 -14 1 -29 1 -34 0 -5 -1 -6 4 -3
12 2 7 -1 21 -9 32 -8 10 -14 15 -14 9 0 -5 -8 3 -18 19 -10 15 -22 24 -25 20
-4 -3 -7 1 -7 10 0 9 -7 17 -16 17 -8 0 -12 4 -9 10 3 5 -9 24 -28 42 -33 33
-37 38 -37 59 0 5 -4 7 -10 4 -5 -3 -10 -1 -10 4 0 6 5 11 10 11 6 0 10 4 10
10 0 5 -8 6 -17 3 -12 -5 -15 -2 -10 10 5 12 1 17 -13 17 -15 0 -20 7 -20 25
0 14 4 25 8 25 5 0 7 13 4 29 -3 24 0 29 23 33 26 5 27 4 21 -26 l-6 -31 25
29 c24 28 29 40 26 60 -1 5 5 4 13 -3 13 -11 18 -10 31 3 12 12 13 16 3 16 -8
1 -5 7 7 16 19 16 19 16 -5 9 -14 -4 -28 -12 -31 -18 -4 -5 -12 -6 -19 -2 -8
5 -11 0 -8 -15 2 -13 -3 -25 -11 -28 -8 -3 -11 0 -7 7 5 7 1 9 -8 5 -9 -3 -23
-3 -32 0 -14 5 -14 8 2 23 10 10 28 19 42 20 30 2 52 20 52 43 0 19 26 34 41
24 5 -3 8 0 7 8 -2 8 6 13 19 13 11 0 25 3 29 8 10 10 36 9 30 -2z m1804 -1
c0 -5 -5 -10 -11 -10 -5 0 -7 5 -4 10 3 6 8 10 11 10 2 0 4 -4 4 -10z m74 -6
c3 -8 10 -13 16 -9 5 3 18 -3 30 -15 20 -20 46 -28 35 -10 -3 5 0 7 8 5 16 -7
46 -56 45 -75 -2 -33 3 -51 12 -45 17 11 11 -21 -10 -48 -11 -14 -20 -30 -20
-35 0 -6 -6 -13 -12 -15 -10 -4 -9 -8 2 -16 10 -7 11 -11 3 -11 -7 0 -13 -6
-13 -12 0 -7 -12 -24 -25 -37 -14 -12 -22 -27 -19 -32 3 -5 -2 -12 -10 -15 -9
-3 -14 -10 -11 -14 3 -4 -2 -13 -10 -20 -8 -7 -15 -9 -15 -6 0 4 -7 1 -15 -8
-8 -8 -15 -19 -15 -25 0 -6 -5 -11 -11 -11 -5 0 -7 -4 -4 -10 3 -5 1 -10 -5
-10 -6 0 -8 -4 -5 -10 3 -5 2 -10 -3 -10 -5 0 -27 -16 -48 -36 -22 -20 -34
-34 -27 -30 6 3 19 -1 27 -10 9 -9 16 -11 16 -4 0 6 5 8 10 5 17 -10 11 -25
-10 -25 -11 0 -20 6 -21 13 0 9 -2 9 -5 0 -3 -7 -12 -9 -20 -6 -8 3 -14 0 -14
-6 0 -7 -9 -5 -25 5 -20 13 -25 13 -25 3 -1 -10 -4 -9 -11 3 -5 9 -16 15 -23
12 -8 -3 -17 -1 -20 5 -4 6 -13 8 -21 4 -10 -3 -15 2 -15 16 0 18 -3 20 -19
11 -26 -14 -31 -13 -31 6 0 8 -4 12 -10 9 -5 -3 -10 2 -10 12 0 14 -2 15 -9 5
-6 -9 -12 0 -19 29 -6 24 -9 46 -6 50 2 4 -3 9 -11 12 -12 5 -12 10 0 34 8 16
23 38 35 51 11 12 18 22 14 22 -4 0 2 8 12 18 26 24 46 61 39 73 -4 5 -2 8 3
7 6 -2 10 1 10 6 0 5 6 12 14 17 7 5 13 14 13 21 0 7 7 13 15 13 8 0 16 5 16
10 5 34 18 56 31 51 8 -3 12 -2 9 3 -8 13 64 71 88 71 12 0 31 7 42 15 25 19
50 19 58 -1z m-2024 -59 c0 -9 -9 -15 -22 -14 -17 1 -19 2 -5 6 9 2 17 9 17
14 0 5 2 9 5 9 3 0 5 -7 5 -15z m1106 -134 c-3 -5 17 -8 44 -6 33 2 48 -1 43
-8 -3 -5 -1 -7 5 -4 14 9 42 -2 42 -17 0 -6 21 -18 48 -26 41 -13 47 -19 47
-42 1 -15 11 -41 23 -58 13 -17 20 -36 16 -42 -4 -6 -3 -8 3 -5 16 10 34 -38
20 -52 -8 -8 -8 -11 1 -11 9 0 10 -5 3 -19 -8 -15 -7 -20 5 -25 14 -5 14 -7 0
-22 -20 -19 -21 -16 11 -45 14 -13 23 -18 18 -10 -6 11 -1 13 24 9 17 -2 31
-1 31 4 0 4 7 8 15 8 8 0 15 -4 15 -9 0 -5 15 -5 35 -1 30 7 37 5 46 -12 6
-10 25 -28 42 -38 18 -11 28 -20 22 -20 -5 0 2 -8 15 -17 14 -10 29 -17 33
-15 5 1 6 -7 2 -18 -5 -15 -3 -18 9 -14 12 5 16 0 16 -19 0 -13 7 -30 15 -37
13 -10 10 -15 -18 -35 -22 -15 -36 -19 -44 -12 -7 5 -10 14 -7 19 3 5 -3 12
-15 15 -22 6 -28 19 -10 25 6 2 8 14 4 30 -5 17 -12 25 -21 21 -8 -3 -14 -1
-14 5 0 5 -15 26 -34 46 -34 36 -54 48 -40 24 6 -10 3 -9 -8 0 -12 10 -22 11
-36 3 -13 -7 -23 -7 -32 2 -9 9 -8 6 1 -10 8 -13 19 -23 26 -23 6 0 14 -9 18
-19 4 -12 12 -18 21 -14 7 3 14 1 14 -5 0 -11 -18 -11 -37 1 -9 6 -13 2 -14
-10 0 -14 -2 -14 -9 5 -5 12 -14 22 -20 22 -5 0 -10 7 -10 16 0 8 -4 13 -9 10
-5 -4 -12 0 -14 6 -4 9 -6 7 -6 -3 -1 -9 9 -24 22 -33 l22 -15 -24 -21 c-13
-11 -21 -23 -18 -26 3 -4 -4 -21 -17 -38 -13 -17 -21 -37 -19 -43 3 -7 0 -13
-6 -13 -6 0 -10 -3 -9 -7 1 -5 -9 -30 -22 -58 -13 -27 -24 -54 -25 -60 -10
-41 -39 -115 -45 -115 -5 0 -6 -9 -3 -20 3 -11 1 -20 -5 -20 -12 0 -23 -25
-28 -63 -2 -15 0 -25 6 -22 5 3 14 -3 19 -12 10 -17 12 -17 24 -1 8 10 16 15
19 13 6 -7 32 76 29 94 -1 7 2 10 7 7 9 -5 14 11 26 83 7 37 18 41 71 25 28
-8 64 -17 80 -19 27 -5 28 -4 13 8 -10 8 -15 17 -11 20 3 4 -2 9 -11 13 -9 3
-13 11 -9 18 3 6 3 8 -2 4 -4 -4 -17 -1 -29 7 -11 8 -27 15 -36 15 -9 0 -16
10 -18 25 -1 17 2 23 12 19 10 -4 13 0 10 13 -3 10 0 32 7 48 10 28 12 28 19
10 5 -11 9 -15 9 -9 1 7 10 14 20 17 17 4 18 1 11 -18 -7 -19 -6 -22 11 -18
10 3 19 10 19 15 0 5 -5 6 -12 2 -7 -4 -8 -3 -4 4 4 7 17 12 29 12 17 0 19 -2
8 -9 -11 -7 -10 -11 5 -19 11 -5 25 -7 33 -4 9 3 11 0 6 -8 -6 -10 -4 -12 8
-7 9 3 17 1 19 -5 5 -14 48 8 66 34 8 11 19 17 24 16 14 -5 14 -83 1 -100 -6
-7 -7 -22 -3 -33 5 -13 1 -29 -11 -47 -14 -20 -16 -28 -7 -31 8 -3 6 -6 -5 -6
-9 -1 -23 -12 -29 -26 -6 -14 -15 -25 -20 -25 -4 0 -8 -18 -8 -40 0 -29 -4
-40 -15 -40 -9 0 -18 -6 -21 -14 -3 -8 -12 -12 -19 -10 -7 3 -21 -3 -29 -13
-51 -57 -66 -77 -66 -84 0 -5 -6 -9 -14 -9 -8 0 -17 -11 -20 -25 -4 -14 -11
-23 -16 -20 -5 3 -30 -15 -55 -40 -40 -39 -60 -48 -91 -44 -4 0 -11 -5 -15
-13 -8 -11 -11 -11 -18 1 -5 8 -15 11 -23 8 -10 -3 -14 2 -14 17 1 15 -6 22
-25 24 -15 2 -37 14 -49 27 -19 20 -25 22 -36 10 -8 -7 -14 -17 -14 -22 0 -4
-4 -14 -9 -22 -8 -12 -13 -12 -24 -3 -12 10 -16 9 -21 -3 -3 -8 0 -15 6 -15 9
0 9 -3 0 -12 -9 -9 -15 -8 -27 8 -8 10 -13 24 -10 31 2 7 -8 10 -30 8 -24 -2
-32 1 -29 10 4 9 -3 11 -22 7 -23 -4 -26 -2 -21 12 4 10 3 15 -3 11 -6 -3 -10
1 -10 10 0 9 -5 13 -10 10 -6 -4 -8 -15 -5 -26 7 -21 -7 -30 -49 -33 -13 0
-23 -4 -21 -7 2 -3 -14 -10 -36 -16 -21 -5 -39 -7 -39 -3 0 5 -9 6 -19 3 -11
-3 -38 5 -61 18 -35 20 -43 21 -50 9 -10 -16 -12 -12 -14 36 -1 25 2 30 17 26
9 -2 17 1 17 8 0 8 9 11 24 8 16 -3 23 -1 20 7 -3 6 7 17 21 25 14 7 25 20 25
29 0 14 2 14 10 1 6 -10 10 -11 10 -3 0 7 14 20 31 29 24 12 29 18 18 24 -11
7 -9 13 9 28 12 11 22 29 22 40 0 11 4 32 9 46 7 17 7 26 -2 29 -7 2 -9 8 -5
12 4 4 16 -3 27 -16 21 -25 28 -44 12 -34 -6 3 -9 -4 -8 -15 1 -11 5 -20 10
-20 4 0 6 -3 4 -7 -3 -5 2 -15 11 -23 14 -13 15 -12 9 3 -12 30 17 19 31 -13
8 -16 19 -30 25 -30 7 0 24 -6 39 -14 22 -12 33 -12 53 -3 13 7 25 16 25 20 0
5 5 5 10 2 6 -4 24 5 41 19 17 14 37 26 46 26 10 0 14 6 11 18 -5 19 13 42 33
42 6 0 9 6 6 14 -3 7 -2 17 3 22 12 12 20 62 13 80 -8 21 -23 17 -23 -6 0 -13
-10 -24 -27 -31 -25 -9 -63 -45 -63 -59 0 -9 -66 -39 -98 -45 -24 -4 -66 27
-54 40 4 4 -2 5 -13 3 -14 -2 -19 2 -17 12 10 40 10 50 3 50 -4 0 -16 7 -27
15 -18 13 -18 14 4 8 22 -5 23 -4 11 15 -11 17 -11 24 -1 34 6 6 12 24 12 38
0 14 9 33 20 43 12 10 18 22 15 26 -3 5 8 15 25 23 16 7 31 20 31 28 1 11 3
10 6 -2 6 -22 12 -22 35 -1 10 9 18 11 18 5 0 -7 10 -8 31 -2 38 11 49 6 49
-22 0 -20 1 -21 20 -3 19 17 20 17 20 1 0 -9 5 -14 10 -11 6 3 10 2 10 -4 0
-13 45 -25 60 -16 5 3 7 11 3 18 -8 13 -12 59 -5 71 2 4 9 2 14 -5 7 -11 8 -9
4 4 -3 10 -6 23 -6 28 0 6 -4 7 -10 4 -14 -9 -12 5 5 35 18 31 19 44 3 34 -8
-5 -9 -2 -5 9 4 10 2 17 -5 17 -7 0 -6 6 2 16 8 8 9 14 4 12 -10 -3 -14 4 -14
24 0 9 3 9 12 0 16 -16 29 -15 22 1 -2 7 -22 14 -42 15 -33 2 -39 -1 -50 -25
-6 -16 -9 -19 -6 -6 3 12 0 24 -5 28 -6 3 -8 0 -5 -8 3 -8 -5 -25 -18 -37 -13
-13 -16 -19 -8 -15 8 5 1 -5 -17 -23 -34 -35 -56 -42 -46 -15 4 11 3 14 -5 9
-16 -10 -15 -53 1 -60 6 -3 -6 -3 -28 0 -77 10 -85 13 -78 32 6 15 5 15 -10 3
-10 -8 -20 -11 -24 -7 -3 3 -1 6 6 6 7 0 -2 14 -19 31 -22 22 -28 34 -19 39 8
5 4 10 -12 15 -14 5 -25 3 -27 -4 -6 -17 -52 -14 -52 4 0 21 -20 19 -20 -2 -1
-17 -1 -17 -14 0 -13 16 -14 16 -20 -8 -4 -14 -11 -23 -16 -20 -6 4 -7 11 -4
17 4 6 2 8 -4 5 -17 -11 -7 -42 12 -39 15 3 17 -3 15 -35 -2 -21 -8 -44 -13
-52 -9 -12 -8 -13 3 -6 11 6 13 4 8 -8 -5 -13 -1 -17 16 -17 22 -1 22 -1 -4
-24 -20 -17 -24 -27 -17 -40 6 -11 16 -15 29 -11 14 5 19 2 19 -12 0 -11 5
-24 12 -31 7 -7 8 -15 1 -24 -5 -7 -8 -28 -6 -46 1 -18 -1 -31 -6 -27 -5 3
-12 -1 -14 -7 -4 -9 -6 -7 -6 3 -2 35 -37 50 -116 52 -27 1 -53 6 -57 11 -4 6
-15 0 -25 -13 -10 -13 -31 -24 -46 -24 -15 -1 -27 -6 -27 -11 0 -5 -7 -3 -15
4 -8 7 -15 9 -15 6 0 -4 -10 -1 -22 5 -22 12 -22 12 -3 19 11 4 20 16 20 26 0
54 88 110 167 108 28 -1 38 3 41 18 11 39 -126 74 -159 41 -8 -8 -14 -11 -14
-8 0 4 -12 0 -26 -10 -24 -16 -26 -16 -40 2 -14 17 -15 17 -6 -2 11 -25 5 -45
-14 -45 -8 0 -14 -10 -14 -24 0 -14 -5 -28 -10 -31 -6 -4 -10 -12 -8 -18 1 -7
-2 -32 -6 -56 -7 -37 -5 -47 10 -58 10 -7 14 -13 9 -13 -20 0 45 -50 71 -54
15 -3 31 -11 36 -18 7 -12 12 -4 9 15 0 4 6 7 14 7 8 0 15 6 15 14 0 22 27 33
90 38 8 0 20 4 26 9 6 5 21 -2 37 -16 14 -14 32 -25 39 -25 9 0 9 -3 -2 -10
-12 -8 -13 -11 -1 -19 9 -6 10 -11 2 -15 -6 -4 -11 -22 -11 -39 0 -36 -47 -97
-74 -97 -9 0 -16 -9 -16 -19 0 -11 -4 -23 -10 -26 -6 -3 -7 1 -4 9 8 20 -3 20
-22 1 -8 -8 -21 -12 -29 -8 -9 3 -22 0 -30 -7 -12 -10 -20 -9 -41 5 -22 14
-28 15 -35 4 -8 -12 -11 -12 -18 1 -5 8 -7 18 -4 24 4 5 -1 7 -10 3 -11 -4
-14 -2 -11 8 4 8 -5 35 -19 60 -14 25 -22 43 -17 40 6 -3 7 1 4 9 -3 9 -10 16
-16 16 -5 0 -6 10 -3 21 4 13 3 19 -2 16 -6 -4 -8 4 -5 18 2 14 0 25 -6 25
-10 0 -25 30 -28 55 0 6 -4 17 -7 25 -4 8 -8 26 -9 40 -2 14 -6 27 -10 30 -12
10 -13 45 0 43 16 -4 16 9 0 25 -8 8 -9 15 -3 20 6 4 10 12 10 17 1 18 28 65
38 65 5 0 6 7 3 16 -6 15 25 48 44 49 3 0 10 4 17 8 6 4 19 4 28 1 10 -4 21
-1 27 7 6 9 11 10 14 3 3 -6 20 -10 39 -7 21 2 39 -2 49 -12 9 -10 21 -13 28
-8 19 11 71 13 84 2 8 -6 11 4 10 35 -1 48 10 69 24 46 6 -8 10 -10 10 -4 0
15 -25 36 -33 27 -8 -8 -9 10 -1 30 3 9 13 13 25 10 22 -6 26 15 4 23 -8 4
-15 11 -15 17 0 6 3 7 7 4 7 -8 33 11 33 24 0 5 -7 9 -15 9 -8 0 -15 8 -14 18
0 10 3 12 6 5 3 -9 10 -10 24 -3 25 14 25 33 -1 25 -15 -5 -18 -3 -14 9 3 9
10 13 15 10 5 -3 14 7 20 23 12 28 12 28 18 4 l6 -23 25 21 c14 11 19 20 13
21 -7 0 -13 5 -13 11 0 8 12 10 35 6 30 -5 35 -3 35 14 0 10 5 19 10 19 6 0
10 -4 10 -10 0 -5 7 -10 16 -10 8 0 12 5 9 10 -11 18 5 31 26 20 13 -8 19 -7
19 0 0 7 8 9 20 5 11 -3 28 -2 37 4 22 13 26 13 19 2z m141 -488 c4 -9 1 -19
-5 -21 -7 -2 -9 -8 -6 -14 3 -5 -3 -4 -15 4 -27 17 -28 48 -1 48 11 0 24 -8
27 -17z m-294 -10 c23 -7 22 -24 -3 -30 -11 -3 -17 -9 -15 -13 3 -5 -8 -2 -25
6 -26 13 -28 18 -19 35 7 14 16 18 27 14 9 -4 25 -10 35 -12z m654 -50 c9 -24
-4 -26 -26 -4 -12 12 -21 23 -21 25 0 10 42 -8 47 -21z m-695 -15 c-7 -7 -12
-8 -12 -2 0 14 12 26 19 19 2 -3 -1 -11 -7 -17z m-65 -214 c-3 -3 -12 -4 -19
-1 -8 3 -5 6 6 6 11 1 17 -2 13 -5z m-179 -429 c-9 -9 -30 14 -23 25 6 9 10 8
17 -4 6 -10 8 -19 6 -21z"/>
<path d="M1778 2253 c7 -3 16 -2 19 1 4 3 -2 6 -13 5 -11 0 -14 -3 -6 -6z"/>
<path d="M1751 2233 c0 -13 -6 -23 -12 -23 -5 0 -7 -5 -3 -11 9 -16 27 16 21
39 -3 12 -5 11 -6 -5z"/>
<path d="M1819 2228 c0 -2 -2 -11 -4 -21 -3 -15 -1 -16 11 -6 7 6 11 15 8 20
-5 9 -13 12 -15 7z"/>
<path d="M1866 2220 c-18 -6 -18 -7 4 -13 28 -7 32 -6 22 9 -4 6 -16 8 -26 4z"/>
<path d="M1595 2200 c3 -5 8 -10 11 -10 2 0 4 5 4 10 0 6 -5 10 -11 10 -5 0
-7 -4 -4 -10z"/>
<path d="M1780 2200 c0 -5 5 -10 11 -10 5 0 7 5 4 10 -3 6 -8 10 -11 10 -2 0
-4 -4 -4 -10z"/>
<path d="M1630 2190 c0 -5 5 -10 11 -10 5 0 7 5 4 10 -3 6 -8 10 -11 10 -2 0
-4 -4 -4 -10z"/>
<path d="M1908 2189 c-10 -5 -18 -15 -18 -22 0 -8 3 -8 9 2 6 9 11 10 15 2 9
-14 26 -5 26 15 0 16 -8 17 -32 3z"/>
<path d="M1710 2169 c0 -5 5 -7 10 -4 6 3 10 8 10 11 0 2 -4 4 -10 4 -5 0 -10
-5 -10 -11z"/>
<path d="M1514 2139 c-2 -4 2 -10 8 -12 10 -4 10 -6 1 -6 -7 -1 -13 -6 -13
-13 0 -6 9 -3 20 7 11 10 20 21 20 25 0 9 -30 9 -36 -1z"/>
<path d="M1740 2141 c0 -6 4 -13 10 -16 6 -3 7 1 4 9 -7 18 -14 21 -14 7z"/>
<path d="M1913 2125 c-3 -9 -3 -19 1 -22 3 -4 6 2 6 11 0 12 5 16 16 12 8 -3
12 -2 9 4 -9 15 -25 12 -32 -5z"/>
<path d="M1600 2085 c0 -2 9 -9 20 -15 16 -9 18 -8 14 5 -5 13 -34 22 -34 10z"/>
<path d="M1880 2075 c0 -8 -4 -15 -8 -15 -5 0 -9 -7 -9 -15 0 -17 15 -19 36
-6 12 7 12 13 3 24 -7 7 -9 17 -5 20 3 4 1 7 -5 7 -7 0 -12 -7 -12 -15z"/>
<path d="M1555 2060 c-3 -5 1 -10 9 -10 9 0 16 -5 16 -11 0 -5 5 -7 10 -4 8 5
7 11 -1 21 -14 16 -25 18 -34 4z"/>
<path d="M1657 2059 c7 -7 15 -10 18 -7 3 3 -2 9 -12 12 -14 6 -15 5 -6 -5z"/>
<path d="M1755 2040 c3 -5 12 -7 20 -3 21 7 19 13 -6 13 -11 0 -18 -4 -14 -10z"/>
<path d="M1845 1997 c-8 -19 -2 -30 19 -33 7 -1 13 4 13 12 0 7 -4 11 -8 8 -4
-2 -9 4 -12 13 -4 17 -4 17 -12 0z"/>
<path d="M1701 1984 c0 -11 3 -14 6 -6 3 7 2 16 -1 19 -3 4 -6 -2 -5 -13z"/>
<path d="M1730 1987 c0 -9 10 -22 23 -28 l22 -12 -20 24 c-11 13 -21 26 -22
28 -2 2 -3 -3 -3 -12z"/>
<path d="M1550 1949 c0 -5 5 -7 10 -4 6 3 10 8 10 11 0 2 -4 4 -10 4 -5 0 -10
-5 -10 -11z"/>
<path d="M1778 1938 c-10 -10 -14 -18 -9 -18 10 0 36 29 30 34 -2 1 -12 -6
-21 -16z"/>
<path d="M1806 1925 c-9 -14 -12 -25 -6 -25 6 0 8 -11 4 -27 -6 -27 -6 -27 9
-8 11 15 20 85 11 85 -1 0 -9 -11 -18 -25z"/>
<path d="M1740 1816 c0 -9 5 -16 10 -16 6 0 10 4 10 9 0 6 -4 13 -10 16 -5 3
-10 -1 -10 -9z"/>
<path d="M986 2243 c-10 -26 -7 -31 30 -37 19 -4 43 -10 51 -13 11 -4 9 1 -5
15 -12 12 -27 22 -33 22 -5 0 -8 4 -5 9 3 5 -3 11 -13 14 -12 3 -22 -1 -25
-10z"/>
<path d="M900 2241 c0 -5 7 -11 15 -15 9 -3 15 0 15 9 0 8 -7 15 -15 15 -8 0
-15 -4 -15 -9z"/>
<path d="M940 2225 c0 -8 4 -15 10 -15 5 0 7 7 4 15 -4 8 -8 15 -10 15 -2 0
-4 -7 -4 -15z"/>
<path d="M822 2211 c-11 -7 -11 -9 0 -13 18 -7 39 2 32 13 -6 11 -15 11 -32 0z"/>
<path d="M1133 2105 c0 -8 4 -15 9 -15 4 0 8 4 8 9 0 6 -4 12 -8 15 -5 3 -9
-1 -9 -9z"/>
<path d="M1123 2072 c-8 -5 -2 -13 18 -24 30 -18 39 -7 15 18 -17 16 -17 16
-33 6z"/>
<path d="M1160 1950 c0 -5 5 -10 11 -10 5 0 7 5 4 10 -3 6 -8 10 -11 10 -2 0
-4 -4 -4 -10z"/>
<path d="M1071 1859 c18 -11 39 -11 39 0 0 5 -12 9 -26 9 -18 0 -22 -3 -13 -9z"/>
<path d="M965 1849 c-4 -6 -5 -12 -2 -15 2 -3 7 2 10 11 7 17 1 20 -8 4z"/>
<path d="M1136 1845 c-3 -8 -1 -15 4 -15 6 0 10 7 10 15 0 8 -2 15 -4 15 -2 0
-6 -7 -10 -15z"/>
<path d="M1160 1850 c0 -5 10 -10 23 -10 18 0 19 2 7 10 -19 13 -30 13 -30 0z"/>
<path d="M370 1805 c0 -8 7 -15 15 -15 8 0 15 4 15 9 0 5 -7 11 -15 15 -9 3
-15 0 -15 -9z"/>
<path d="M426 1785 c7 -17 64 -21 64 -4 0 6 -8 8 -19 4 -11 -3 -22 -1 -26 5
-10 16 -25 12 -19 -5z"/>
<path d="M416 1721 c-4 -5 3 -7 14 -4 23 6 26 13 6 13 -8 0 -17 -4 -20 -9z"/>
<path d="M458 1703 c6 -2 18 -2 25 0 6 3 1 5 -13 5 -14 0 -19 -2 -12 -5z"/>
<path d="M505 1700 c-3 -5 -1 -10 4 -10 6 0 11 5 11 10 0 6 -2 10 -4 10 -3 0
-8 -4 -11 -10z"/>
<path d="M502 1668 c3 -7 13 -15 23 -17 17 -3 17 -2 3 13 -20 19 -31 21 -26 4z"/>
<path d="M224 1613 c3 -8 6 -19 6 -24 0 -5 9 -9 19 -9 29 0 23 37 -7 43 -17 3
-22 1 -18 -10z"/>
<path d="M533 1605 c-18 -20 -16 -28 6 -22 14 3 17 0 14 -14 -3 -11 0 -19 7
-19 7 0 10 -7 6 -15 -3 -8 -1 -15 3 -15 12 0 23 29 15 41 -3 5 -9 7 -14 4 -5
-3 -8 7 -7 21 2 31 -12 40 -30 19z"/>
<path d="M437 1595 c-8 -8 -18 -11 -22 -7 -5 4 -5 2 -1 -5 5 -9 13 -10 31 -1
14 6 25 15 25 20 0 13 -17 10 -33 -7z"/>
<path d="M2319 1757 c6 -8 8 -17 4 -21 -4 -4 0 -4 9 -1 20 8 12 35 -9 35 -12
0 -13 -3 -4 -13z"/>
<path d="M2336 1673 c-6 -14 -5 -15 5 -6 7 7 10 15 7 18 -3 3 -9 -2 -12 -12z"/>
<path d="M2095 1650 c-4 -6 6 -9 24 -7 41 5 47 12 11 15 -16 1 -31 -2 -35 -8z"/>
<path d="M2297 1589 c9 -9 10 -16 2 -26 -9 -10 -7 -13 8 -13 26 0 25 24 -1 40
-17 10 -19 10 -9 -1z"/>
<path d="M2048 1583 c7 -3 16 -2 19 1 4 3 -2 6 -13 5 -11 0 -14 -3 -6 -6z"/>
<path d="M2022 1540 c7 -10 14 -18 15 -16 6 6 -9 36 -18 36 -5 0 -4 -9 3 -20z"/>
<path d="M2215 1429 c-11 -17 -2 -18 19 -3 17 12 17 14 4 14 -9 0 -20 -5 -23
-11z"/>
<path d="M2132 1375 c-27 -26 -20 -62 8 -45 13 9 13 11 0 19 -12 9 -12 11 4
17 11 4 22 1 28 -7 8 -11 9 -10 4 4 -3 10 -6 23 -6 28 0 14 -13 9 -38 -16z"/>
<path d="M2191 1384 c0 -11 3 -14 6 -6 3 7 2 16 -1 19 -3 4 -6 -2 -5 -13z"/>
<path d="M1360 1600 c0 -5 -11 -12 -24 -16 -32 -8 -39 -27 -15 -42 15 -10 19
-9 19 0 0 9 3 9 9 -2 6 -8 8 -17 6 -20 -2 -4 2 -7 10 -7 8 0 15 6 15 14 0 7
-4 13 -10 13 -5 0 -10 4 -10 9 0 15 24 19 50 8 14 -5 34 -12 45 -14 16 -3 14
2 -10 22 -21 17 -37 23 -54 19 -18 -4 -22 -2 -18 10 4 9 2 16 -3 16 -6 0 -10
-4 -10 -10z"/>
<path d="M1277 1583 c-4 -3 -7 -11 -7 -17 0 -6 5 -5 12 2 6 6 9 14 7 17 -3 3
-9 2 -12 -2z"/>
<path d="M1156 1525 c-9 -24 5 -41 16 -20 7 11 7 20 0 27 -6 6 -12 3 -16 -7z"/>
<path d="M1483 1522 c-25 -4 -30 -17 -10 -25 14 -5 53 19 40 25 -4 2 -18 2
-30 0z"/>
<path d="M1416 1487 c3 -10 9 -15 12 -12 3 3 0 11 -7 18 -10 9 -11 8 -5 -6z"/>
<path d="M1530 1464 c0 -8 5 -12 10 -9 6 3 10 1 10 -4 0 -6 5 -11 10 -11 6 0
5 8 -2 20 -15 24 -28 26 -28 4z"/>
<path d="M1285 1460 c-3 -6 1 -7 9 -4 18 7 21 14 7 14 -6 0 -13 -4 -16 -10z"/>
<path d="M1105 1440 c3 -5 8 -10 11 -10 2 0 4 5 4 10 0 6 -5 10 -11 10 -5 0
-7 -4 -4 -10z"/>
<path d="M1331 1434 c7 -8 18 -13 25 -10 7 3 22 -4 34 -14 13 -11 27 -17 32
-14 14 9 -39 45 -73 49 -27 4 -29 2 -18 -11z"/>
<path d="M1070 1419 c0 -5 5 -7 10 -4 6 3 10 8 10 11 0 2 -4 4 -10 4 -5 0 -10
-5 -10 -11z"/>
<path d="M1140 1422 c0 -5 7 -13 16 -16 10 -4 14 -1 12 6 -5 15 -28 23 -28 10z"/>
<path d="M1518 1423 c7 -3 16 -2 19 1 4 3 -2 6 -13 5 -11 0 -14 -3 -6 -6z"/>
<path d="M1280 1417 c0 -4 9 -16 20 -27 11 -11 20 -16 20 -12 0 5 -9 17 -20
27 -11 10 -20 15 -20 12z"/>
<path d="M1310 1345 c0 -8 4 -15 10 -15 5 0 7 7 4 15 -4 8 -8 15 -10 15 -2 0
-4 -7 -4 -15z"/>
<path d="M1076 1335 c4 -8 13 -15 21 -15 13 0 13 3 3 15 -7 8 -16 15 -21 15
-5 0 -6 -7 -3 -15z"/>
<path d="M1182 1320 c0 -14 2 -19 5 -12 2 6 2 18 0 25 -3 6 -5 1 -5 -13z"/>
<path d="M1120 1321 c0 -10 19 -25 25 -20 1 2 -3 10 -11 17 -8 7 -14 8 -14 3z"/>
<path d="M1230 1290 c0 -5 5 -10 11 -10 5 0 7 5 4 10 -3 6 -8 10 -11 10 -2 0
-4 -4 -4 -10z"/>
<path d="M1340 1266 c0 -9 5 -16 10 -16 6 0 10 4 10 9 0 6 -4 13 -10 16 -5 3
-10 -1 -10 -9z"/>
<path d="M1390 1273 c0 -5 5 -15 10 -23 8 -12 10 -11 10 8 0 12 -4 22 -10 22
-5 0 -10 -3 -10 -7z"/>
<path d="M1255 1260 c3 -5 8 -10 11 -10 2 0 4 5 4 10 0 6 -5 10 -11 10 -5 0
-7 -4 -4 -10z"/>
<path d="M1286 1241 c-3 -5 3 -11 15 -14 16 -4 18 -3 8 9 -13 16 -16 17 -23 5z"/>
<path d="M1230 1230 c0 -6 7 -10 15 -10 8 0 15 2 15 4 0 2 -7 6 -15 10 -8 3
-15 1 -15 -4z"/>
<path d="M797 1209 c-10 -6 -25 -8 -33 -5 -8 3 -17 -1 -21 -10 -7 -20 6 -32
16 -15 5 8 22 14 39 15 19 1 28 5 25 14 -3 6 -6 12 -7 12 0 0 -9 -5 -19 -11z"/>
<path d="M1036 1195 c4 -8 8 -15 10 -15 2 0 4 7 4 15 0 8 -4 15 -10 15 -5 0
-7 -7 -4 -15z"/>
<path d="M1332 1201 c-11 -7 -11 -9 2 -14 10 -4 16 -1 16 8 0 17 -1 17 -18 6z"/>
<path d="M666 1055 c4 -8 10 -15 15 -15 4 0 6 7 3 15 -4 8 -10 15 -15 15 -4 0
-6 -7 -3 -15z"/>
<path d="M1385 1060 c-3 -5 -1 -10 4 -10 6 0 11 5 11 10 0 6 -2 10 -4 10 -3 0
-8 -4 -11 -10z"/>
<path d="M1587 1033 c-4 -3 -7 -11 -7 -17 0 -6 5 -5 12 2 6 6 9 14 7 17 -3 3
-9 2 -12 -2z"/>
<path d="M1435 1010 c3 -5 8 -10 11 -10 2 0 4 5 4 10 0 6 -5 10 -11 10 -5 0
-7 -4 -4 -10z"/>
<path d="M1070 1001 c0 -6 4 -13 10 -16 6 -3 7 1 4 9 -7 18 -14 21 -14 7z"/>
<path d="M1967 983 c-9 -2 -15 -9 -12 -14 9 -14 22 -11 29 6 3 8 4 14 3 14 -1
-1 -10 -3 -20 -6z"/>
<path d="M1488 958 c2 -10 7 -18 11 -18 4 0 7 8 7 18 0 10 -5 19 -12 19 -6 0
-9 -9 -6 -19z"/>
<path d="M1881 876 c-7 -8 -10 -24 -6 -35 3 -10 1 -22 -5 -26 -13 -8 -13 -25
0 -25 6 0 10 7 10 15 0 8 5 15 11 15 5 0 7 5 3 11 -3 6 -1 15 6 19 8 5 9 13 3
24 -8 15 -11 16 -22 2z"/>
<path d="M1790 700 c0 -5 5 -10 10 -10 6 0 10 5 10 10 0 6 -4 10 -10 10 -5 0
-10 -4 -10 -10z"/>
<path d="M1106 675 c4 -8 11 -15 16 -15 6 0 5 6 -2 15 -7 8 -14 15 -16 15 -2
0 -1 -7 2 -15z"/>
<path d="M1185 670 c3 -5 8 -10 11 -10 2 0 4 5 4 10 0 6 -5 10 -11 10 -5 0 -7
-4 -4 -10z"/>
<path d="M1735 650 c-3 -5 3 -10 14 -10 12 0 21 5 21 10 0 6 -6 10 -14 10 -8
0 -18 -4 -21 -10z"/>
<path d="M1705 590 c-3 -5 -1 -10 4 -10 6 0 11 5 11 10 0 6 -2 10 -4 10 -3 0
-8 -4 -11 -10z"/>
</g>
</svg>
